<mxfile host="Electron" modified="2023-09-20T19:03:03.329Z" agent="Mozilla/5.0 (Windows NT 10.0; Win64; x64) AppleWebKit/537.36 (KHTML, like Gecko) draw.io/21.2.8 Chrome/112.0.5615.165 Electron/24.2.0 Safari/537.36" etag="a8SZmmwaGDxpqCdhTOFH" version="21.2.8" type="device">
  <diagram name="Page-1" id="oPNMoTwYXlUK3Pe__WqM">
    <mxGraphModel dx="1223" dy="949" grid="0" gridSize="10" guides="1" tooltips="1" connect="1" arrows="1" fold="1" page="0" pageScale="1" pageWidth="850" pageHeight="1100" math="0" shadow="0">
      <root>
        <mxCell id="0" />
        <mxCell id="1" parent="0" />
        <mxCell id="lJEgDf2Atm-gNL0_pDHU-60" style="edgeStyle=none;curved=1;rounded=0;orthogonalLoop=1;jettySize=auto;html=1;exitX=0.75;exitY=0;exitDx=0;exitDy=0;fontSize=12;startSize=8;endSize=8;endArrow=oval;endFill=1;strokeWidth=2;" parent="1" source="lJEgDf2Atm-gNL0_pDHU-1" edge="1">
          <mxGeometry relative="1" as="geometry">
            <mxPoint x="-132.8888888888889" y="-44" as="targetPoint" />
          </mxGeometry>
        </mxCell>
        <mxCell id="lJEgDf2Atm-gNL0_pDHU-67" style="edgeStyle=none;curved=1;rounded=0;orthogonalLoop=1;jettySize=auto;html=1;exitX=0.25;exitY=1;exitDx=0;exitDy=0;fontSize=12;startSize=8;endSize=8;endArrow=oval;endFill=0;dashed=1;strokeWidth=2;" parent="1" edge="1">
          <mxGeometry relative="1" as="geometry">
            <mxPoint x="-121" y="88.85714285714289" as="targetPoint" />
            <mxPoint x="-121" y="39" as="sourcePoint" />
          </mxGeometry>
        </mxCell>
        <mxCell id="lJEgDf2Atm-gNL0_pDHU-1" value="user" style="whiteSpace=wrap;html=1;align=center;fontSize=14;strokeWidth=2;fontFamily=Inter;fontSource=https%3A%2F%2Ffonts.googleapis.com%2Fcss%3Ffamily%3DInter;fontStyle=1;shadow=1;rounded=1;" parent="1" vertex="1">
          <mxGeometry x="-208" y="-1" width="100" height="40" as="geometry" />
        </mxCell>
        <mxCell id="lJEgDf2Atm-gNL0_pDHU-29" style="edgeStyle=none;curved=1;rounded=0;orthogonalLoop=1;jettySize=auto;html=1;exitX=1;exitY=0.5;exitDx=0;exitDy=0;entryX=0;entryY=0.5;entryDx=0;entryDy=0;fontSize=12;startSize=8;endSize=8;endArrow=none;endFill=0;strokeWidth=2;fontFamily=Inter;fontSource=https%3A%2F%2Ffonts.googleapis.com%2Fcss%3Ffamily%3DInter;fontStyle=1" parent="1" source="lJEgDf2Atm-gNL0_pDHU-2" target="lJEgDf2Atm-gNL0_pDHU-18" edge="1">
          <mxGeometry relative="1" as="geometry" />
        </mxCell>
        <mxCell id="lJEgDf2Atm-gNL0_pDHU-2" value="game" style="whiteSpace=wrap;html=1;align=center;fontSize=14;strokeWidth=2;fontFamily=Inter;fontSource=https%3A%2F%2Ffonts.googleapis.com%2Fcss%3Ffamily%3DInter;fontStyle=1;shadow=1;rounded=1;" parent="1" vertex="1">
          <mxGeometry x="73" y="-1" width="100" height="40" as="geometry" />
        </mxCell>
        <mxCell id="lJEgDf2Atm-gNL0_pDHU-31" style="edgeStyle=none;curved=1;rounded=0;orthogonalLoop=1;jettySize=auto;html=1;exitX=1;exitY=0.5;exitDx=0;exitDy=0;entryX=0;entryY=0.5;entryDx=0;entryDy=0;fontSize=12;startSize=8;endSize=8;endArrow=none;endFill=0;strokeWidth=4;fontFamily=Inter;fontSource=https%3A%2F%2Ffonts.googleapis.com%2Fcss%3Ffamily%3DInter;fontStyle=1" parent="1" source="lJEgDf2Atm-gNL0_pDHU-3" target="lJEgDf2Atm-gNL0_pDHU-19" edge="1">
          <mxGeometry relative="1" as="geometry" />
        </mxCell>
        <mxCell id="oNDBibnbIo0C0qNJA1D2-24" style="edgeStyle=orthogonalEdgeStyle;rounded=0;orthogonalLoop=1;jettySize=auto;html=1;exitX=0.75;exitY=0;exitDx=0;exitDy=0;entryX=0;entryY=0.5;entryDx=0;entryDy=0;fontSize=12;startSize=8;endSize=8;endArrow=none;endFill=0;strokeWidth=2;" parent="1" source="lJEgDf2Atm-gNL0_pDHU-3" target="oNDBibnbIo0C0qNJA1D2-17" edge="1">
          <mxGeometry relative="1" as="geometry" />
        </mxCell>
        <mxCell id="lJEgDf2Atm-gNL0_pDHU-3" value="game_statement" style="whiteSpace=wrap;html=1;align=center;fontSize=14;strokeWidth=2;fontFamily=Inter;fontSource=https%3A%2F%2Ffonts.googleapis.com%2Fcss%3Ffamily%3DInter;fontStyle=1;shadow=1;rounded=1;" parent="1" vertex="1">
          <mxGeometry x="354" y="-1" width="165" height="40" as="geometry" />
        </mxCell>
        <mxCell id="lJEgDf2Atm-gNL0_pDHU-27" style="edgeStyle=none;curved=1;rounded=0;orthogonalLoop=1;jettySize=auto;html=1;exitX=0;exitY=0.5;exitDx=0;exitDy=0;entryX=1;entryY=0.5;entryDx=0;entryDy=0;fontSize=12;startSize=8;endSize=8;endArrow=none;endFill=0;strokeWidth=2;fontFamily=Inter;fontSource=https%3A%2F%2Ffonts.googleapis.com%2Fcss%3Ffamily%3DInter;fontStyle=1" parent="1" source="lJEgDf2Atm-gNL0_pDHU-8" target="lJEgDf2Atm-gNL0_pDHU-1" edge="1">
          <mxGeometry relative="1" as="geometry" />
        </mxCell>
        <mxCell id="lJEgDf2Atm-gNL0_pDHU-28" style="edgeStyle=none;curved=1;rounded=0;orthogonalLoop=1;jettySize=auto;html=1;exitX=1;exitY=0.5;exitDx=0;exitDy=0;entryX=0;entryY=0.5;entryDx=0;entryDy=0;fontSize=12;startSize=8;endSize=8;endArrow=none;endFill=0;strokeWidth=4;fontFamily=Inter;fontSource=https%3A%2F%2Ffonts.googleapis.com%2Fcss%3Ffamily%3DInter;fontStyle=1" parent="1" source="lJEgDf2Atm-gNL0_pDHU-8" target="lJEgDf2Atm-gNL0_pDHU-2" edge="1">
          <mxGeometry relative="1" as="geometry" />
        </mxCell>
        <mxCell id="lJEgDf2Atm-gNL0_pDHU-8" value="" style="shape=rhombus;perimeter=rhombusPerimeter;whiteSpace=wrap;html=1;align=center;fontSize=16;strokeWidth=2;fontFamily=Inter;fontSource=https%3A%2F%2Ffonts.googleapis.com%2Fcss%3Ffamily%3DInter;fontStyle=1" parent="1" vertex="1">
          <mxGeometry x="-32" y="4" width="30" height="30" as="geometry" />
        </mxCell>
        <mxCell id="lJEgDf2Atm-gNL0_pDHU-33" style="edgeStyle=none;curved=1;rounded=0;orthogonalLoop=1;jettySize=auto;html=1;exitX=0.5;exitY=1;exitDx=0;exitDy=0;entryX=0.5;entryY=0;entryDx=0;entryDy=0;fontSize=12;startSize=8;endSize=8;endArrow=none;endFill=0;strokeWidth=4;fontFamily=Inter;fontSource=https%3A%2F%2Ffonts.googleapis.com%2Fcss%3Ffamily%3DInter;fontStyle=1" parent="1" source="lJEgDf2Atm-gNL0_pDHU-9" target="lJEgDf2Atm-gNL0_pDHU-20" edge="1">
          <mxGeometry relative="1" as="geometry" />
        </mxCell>
        <mxCell id="oNDBibnbIo0C0qNJA1D2-6" style="edgeStyle=none;curved=1;rounded=0;orthogonalLoop=1;jettySize=auto;html=1;exitX=1;exitY=0.5;exitDx=0;exitDy=0;entryX=0;entryY=0.5;entryDx=0;entryDy=0;fontSize=12;startSize=8;endSize=8;endArrow=none;endFill=0;strokeWidth=2;" parent="1" source="lJEgDf2Atm-gNL0_pDHU-9" target="oNDBibnbIo0C0qNJA1D2-5" edge="1">
          <mxGeometry relative="1" as="geometry" />
        </mxCell>
        <mxCell id="lJEgDf2Atm-gNL0_pDHU-9" value="statement" style="whiteSpace=wrap;html=1;align=center;fontSize=14;strokeWidth=2;fontFamily=Inter;fontSource=https%3A%2F%2Ffonts.googleapis.com%2Fcss%3Ffamily%3DInter;fontStyle=1;shadow=1;rounded=1;" parent="1" vertex="1">
          <mxGeometry x="700" y="-1" width="100" height="40" as="geometry" />
        </mxCell>
        <mxCell id="lJEgDf2Atm-gNL0_pDHU-35" style="edgeStyle=none;curved=1;rounded=0;orthogonalLoop=1;jettySize=auto;html=1;exitX=0.5;exitY=1;exitDx=0;exitDy=0;entryX=0.5;entryY=0;entryDx=0;entryDy=0;fontSize=12;startSize=8;endSize=8;endArrow=none;endFill=0;strokeWidth=2;fontFamily=Inter;fontSource=https%3A%2F%2Ffonts.googleapis.com%2Fcss%3Ffamily%3DInter;fontStyle=1" parent="1" source="lJEgDf2Atm-gNL0_pDHU-10" target="lJEgDf2Atm-gNL0_pDHU-21" edge="1">
          <mxGeometry relative="1" as="geometry" />
        </mxCell>
        <mxCell id="lJEgDf2Atm-gNL0_pDHU-69" style="edgeStyle=none;curved=1;rounded=0;orthogonalLoop=1;jettySize=auto;html=1;exitX=1;exitY=0.25;exitDx=0;exitDy=0;fontSize=12;startSize=8;endSize=8;endArrow=oval;endFill=1;strokeWidth=2;" parent="1" source="lJEgDf2Atm-gNL0_pDHU-10" edge="1">
          <mxGeometry relative="1" as="geometry">
            <mxPoint x="854.3076923076922" y="200.0769230769231" as="targetPoint" />
          </mxGeometry>
        </mxCell>
        <mxCell id="lJEgDf2Atm-gNL0_pDHU-72" style="edgeStyle=none;curved=1;rounded=0;orthogonalLoop=1;jettySize=auto;html=1;exitX=0;exitY=0.25;exitDx=0;exitDy=0;fontSize=12;startSize=8;endSize=8;endArrow=oval;endFill=0;strokeWidth=2;" parent="1" source="lJEgDf2Atm-gNL0_pDHU-10" edge="1">
          <mxGeometry relative="1" as="geometry">
            <mxPoint x="642" y="200" as="targetPoint" />
          </mxGeometry>
        </mxCell>
        <mxCell id="lJEgDf2Atm-gNL0_pDHU-10" value="personality" style="whiteSpace=wrap;html=1;align=center;fontSize=14;strokeWidth=2;fontFamily=Inter;fontSource=https%3A%2F%2Ffonts.googleapis.com%2Fcss%3Ffamily%3DInter;fontStyle=1;shadow=1;rounded=1;" parent="1" vertex="1">
          <mxGeometry x="700" y="190" width="100" height="40" as="geometry" />
        </mxCell>
        <mxCell id="lJEgDf2Atm-gNL0_pDHU-37" style="edgeStyle=none;curved=1;rounded=0;orthogonalLoop=1;jettySize=auto;html=1;exitX=0.5;exitY=1;exitDx=0;exitDy=0;entryX=0.5;entryY=0;entryDx=0;entryDy=0;fontSize=12;startSize=8;endSize=8;endArrow=none;endFill=0;strokeWidth=4;fontFamily=Inter;fontSource=https%3A%2F%2Ffonts.googleapis.com%2Fcss%3Ffamily%3DInter;fontStyle=1" parent="1" source="lJEgDf2Atm-gNL0_pDHU-11" target="lJEgDf2Atm-gNL0_pDHU-22" edge="1">
          <mxGeometry relative="1" as="geometry" />
        </mxCell>
        <mxCell id="lJEgDf2Atm-gNL0_pDHU-108" style="edgeStyle=none;curved=1;rounded=0;orthogonalLoop=1;jettySize=auto;html=1;exitX=0;exitY=0.5;exitDx=0;exitDy=0;fontSize=12;startSize=8;endSize=8;endArrow=oval;endFill=1;strokeWidth=2;" parent="1" source="lJEgDf2Atm-gNL0_pDHU-11" edge="1">
          <mxGeometry relative="1" as="geometry">
            <mxPoint x="608" y="401" as="targetPoint" />
          </mxGeometry>
        </mxCell>
        <mxCell id="lJEgDf2Atm-gNL0_pDHU-11" value="personality_pathway" style="whiteSpace=wrap;html=1;align=center;fontSize=14;strokeWidth=2;fontFamily=Inter;fontSource=https%3A%2F%2Ffonts.googleapis.com%2Fcss%3Ffamily%3DInter;fontStyle=1;shadow=1;rounded=1;" parent="1" vertex="1">
          <mxGeometry x="667.5" y="381" width="165" height="40" as="geometry" />
        </mxCell>
        <mxCell id="lJEgDf2Atm-gNL0_pDHU-39" style="edgeStyle=none;curved=1;rounded=0;orthogonalLoop=1;jettySize=auto;html=1;exitX=0;exitY=0.5;exitDx=0;exitDy=0;entryX=1;entryY=0.5;entryDx=0;entryDy=0;fontSize=12;startSize=8;endSize=8;endArrow=none;endFill=0;strokeWidth=2;fontFamily=Inter;fontSource=https%3A%2F%2Ffonts.googleapis.com%2Fcss%3Ffamily%3DInter;fontStyle=1" parent="1" source="lJEgDf2Atm-gNL0_pDHU-15" target="lJEgDf2Atm-gNL0_pDHU-25" edge="1">
          <mxGeometry relative="1" as="geometry" />
        </mxCell>
        <mxCell id="lJEgDf2Atm-gNL0_pDHU-102" style="edgeStyle=none;curved=1;rounded=0;orthogonalLoop=1;jettySize=auto;html=1;exitX=1;exitY=0.5;exitDx=0;exitDy=0;fontSize=12;startSize=8;endSize=8;endArrow=oval;endFill=1;strokeWidth=2;" parent="1" source="lJEgDf2Atm-gNL0_pDHU-15" edge="1">
          <mxGeometry relative="1" as="geometry">
            <mxPoint x="863.8571428571429" y="592.2857142857142" as="targetPoint" />
          </mxGeometry>
        </mxCell>
        <mxCell id="lJEgDf2Atm-gNL0_pDHU-103" style="edgeStyle=none;curved=1;rounded=0;orthogonalLoop=1;jettySize=auto;html=1;exitX=0.5;exitY=1;exitDx=0;exitDy=0;fontSize=12;startSize=8;endSize=8;endArrow=oval;endFill=0;strokeWidth=2;" parent="1" source="lJEgDf2Atm-gNL0_pDHU-15" edge="1">
          <mxGeometry relative="1" as="geometry">
            <mxPoint x="750" y="664" as="targetPoint" />
          </mxGeometry>
        </mxCell>
        <mxCell id="lJEgDf2Atm-gNL0_pDHU-15" value="pathway" style="whiteSpace=wrap;html=1;align=center;fontSize=14;strokeWidth=2;fontFamily=Inter;fontSource=https%3A%2F%2Ffonts.googleapis.com%2Fcss%3Ffamily%3DInter;fontStyle=1;shadow=1;rounded=1;" parent="1" vertex="1">
          <mxGeometry x="700" y="572" width="100" height="40" as="geometry" />
        </mxCell>
        <mxCell id="lJEgDf2Atm-gNL0_pDHU-41" style="edgeStyle=none;curved=1;rounded=0;orthogonalLoop=1;jettySize=auto;html=1;exitX=0;exitY=0.5;exitDx=0;exitDy=0;entryX=1;entryY=0.5;entryDx=0;entryDy=0;fontSize=12;startSize=8;endSize=8;endArrow=none;endFill=0;strokeWidth=4;fontFamily=Inter;fontSource=https%3A%2F%2Ffonts.googleapis.com%2Fcss%3Ffamily%3DInter;fontStyle=1" parent="1" source="lJEgDf2Atm-gNL0_pDHU-16" target="lJEgDf2Atm-gNL0_pDHU-26" edge="1">
          <mxGeometry relative="1" as="geometry" />
        </mxCell>
        <mxCell id="lJEgDf2Atm-gNL0_pDHU-16" value="personality_pathway_ufsm_course" style="whiteSpace=wrap;html=1;align=center;fontSize=14;strokeWidth=2;fontFamily=Inter;fontSource=https%3A%2F%2Ffonts.googleapis.com%2Fcss%3Ffamily%3DInter;fontStyle=1;shadow=1;rounded=1;" parent="1" vertex="1">
          <mxGeometry x="230" y="572" width="270" height="40" as="geometry" />
        </mxCell>
        <mxCell id="lJEgDf2Atm-gNL0_pDHU-96" style="edgeStyle=none;curved=1;rounded=0;orthogonalLoop=1;jettySize=auto;html=1;exitX=0;exitY=0.5;exitDx=0;exitDy=0;fontSize=12;startSize=8;endSize=8;endArrow=oval;endFill=1;strokeWidth=2;" parent="1" source="lJEgDf2Atm-gNL0_pDHU-17" edge="1">
          <mxGeometry relative="1" as="geometry">
            <mxPoint x="-129" y="592" as="targetPoint" />
          </mxGeometry>
        </mxCell>
        <mxCell id="lJEgDf2Atm-gNL0_pDHU-97" style="edgeStyle=none;curved=1;rounded=0;orthogonalLoop=1;jettySize=auto;html=1;exitX=0.5;exitY=0;exitDx=0;exitDy=0;fontSize=12;startSize=8;endSize=8;endArrow=oval;endFill=0;strokeWidth=2;" parent="1" source="lJEgDf2Atm-gNL0_pDHU-17" edge="1">
          <mxGeometry relative="1" as="geometry">
            <mxPoint x="-19.952380952380963" y="523.2380952380952" as="targetPoint" />
          </mxGeometry>
        </mxCell>
        <mxCell id="lJEgDf2Atm-gNL0_pDHU-98" style="edgeStyle=none;curved=1;rounded=0;orthogonalLoop=1;jettySize=auto;html=1;exitX=0.5;exitY=1;exitDx=0;exitDy=0;fontSize=12;startSize=8;endSize=8;endArrow=oval;endFill=0;strokeWidth=2;" parent="1" source="lJEgDf2Atm-gNL0_pDHU-17" edge="1">
          <mxGeometry relative="1" as="geometry">
            <mxPoint x="-19.952380952380963" y="662.2857142857142" as="targetPoint" />
          </mxGeometry>
        </mxCell>
        <mxCell id="lJEgDf2Atm-gNL0_pDHU-17" value="ufsm_course" style="whiteSpace=wrap;html=1;align=center;fontSize=14;strokeWidth=2;fontFamily=Inter;fontSource=https%3A%2F%2Ffonts.googleapis.com%2Fcss%3Ffamily%3DInter;fontStyle=1;shadow=1;rounded=1;" parent="1" vertex="1">
          <mxGeometry x="-70" y="572" width="100" height="40" as="geometry" />
        </mxCell>
        <mxCell id="lJEgDf2Atm-gNL0_pDHU-30" style="edgeStyle=none;curved=1;rounded=0;orthogonalLoop=1;jettySize=auto;html=1;exitX=1;exitY=0.5;exitDx=0;exitDy=0;entryX=0;entryY=0.5;entryDx=0;entryDy=0;fontSize=12;startSize=8;endSize=8;endArrow=none;endFill=0;strokeWidth=4;fontFamily=Inter;fontSource=https%3A%2F%2Ffonts.googleapis.com%2Fcss%3Ffamily%3DInter;fontStyle=1" parent="1" source="lJEgDf2Atm-gNL0_pDHU-18" target="lJEgDf2Atm-gNL0_pDHU-3" edge="1">
          <mxGeometry relative="1" as="geometry" />
        </mxCell>
        <mxCell id="lJEgDf2Atm-gNL0_pDHU-18" value="" style="shape=rhombus;perimeter=rhombusPerimeter;whiteSpace=wrap;html=1;align=center;fontSize=16;strokeWidth=2;fontFamily=Inter;fontSource=https%3A%2F%2Ffonts.googleapis.com%2Fcss%3Ffamily%3DInter;fontStyle=1" parent="1" vertex="1">
          <mxGeometry x="249" y="4" width="30" height="30" as="geometry" />
        </mxCell>
        <mxCell id="lJEgDf2Atm-gNL0_pDHU-32" style="edgeStyle=none;curved=1;rounded=0;orthogonalLoop=1;jettySize=auto;html=1;exitX=1;exitY=0.5;exitDx=0;exitDy=0;entryX=0;entryY=0.5;entryDx=0;entryDy=0;fontSize=12;startSize=8;endSize=8;endArrow=none;endFill=0;strokeWidth=2;fontFamily=Inter;fontSource=https%3A%2F%2Ffonts.googleapis.com%2Fcss%3Ffamily%3DInter;fontStyle=1" parent="1" source="lJEgDf2Atm-gNL0_pDHU-19" target="lJEgDf2Atm-gNL0_pDHU-9" edge="1">
          <mxGeometry relative="1" as="geometry" />
        </mxCell>
        <mxCell id="lJEgDf2Atm-gNL0_pDHU-19" value="" style="shape=rhombus;perimeter=rhombusPerimeter;whiteSpace=wrap;html=1;align=center;fontSize=16;strokeWidth=2;fontFamily=Inter;fontSource=https%3A%2F%2Ffonts.googleapis.com%2Fcss%3Ffamily%3DInter;fontStyle=1" parent="1" vertex="1">
          <mxGeometry x="594" y="4" width="30" height="30" as="geometry" />
        </mxCell>
        <mxCell id="lJEgDf2Atm-gNL0_pDHU-34" style="edgeStyle=none;curved=1;rounded=0;orthogonalLoop=1;jettySize=auto;html=1;exitX=0.5;exitY=1;exitDx=0;exitDy=0;entryX=0.5;entryY=0;entryDx=0;entryDy=0;fontSize=12;startSize=8;endSize=8;endArrow=none;endFill=0;strokeWidth=2;fontFamily=Inter;fontSource=https%3A%2F%2Ffonts.googleapis.com%2Fcss%3Ffamily%3DInter;fontStyle=1" parent="1" source="lJEgDf2Atm-gNL0_pDHU-20" target="lJEgDf2Atm-gNL0_pDHU-10" edge="1">
          <mxGeometry relative="1" as="geometry" />
        </mxCell>
        <mxCell id="lJEgDf2Atm-gNL0_pDHU-20" value="" style="shape=rhombus;perimeter=rhombusPerimeter;whiteSpace=wrap;html=1;align=center;fontSize=16;strokeWidth=2;fontFamily=Inter;fontSource=https%3A%2F%2Ffonts.googleapis.com%2Fcss%3Ffamily%3DInter;fontStyle=1" parent="1" vertex="1">
          <mxGeometry x="735" y="99" width="30" height="30" as="geometry" />
        </mxCell>
        <mxCell id="lJEgDf2Atm-gNL0_pDHU-36" style="edgeStyle=none;curved=1;rounded=0;orthogonalLoop=1;jettySize=auto;html=1;exitX=0.5;exitY=1;exitDx=0;exitDy=0;entryX=0.5;entryY=0;entryDx=0;entryDy=0;fontSize=12;startSize=8;endSize=8;endArrow=none;endFill=0;strokeWidth=4;fontFamily=Inter;fontSource=https%3A%2F%2Ffonts.googleapis.com%2Fcss%3Ffamily%3DInter;fontStyle=1" parent="1" source="lJEgDf2Atm-gNL0_pDHU-21" target="lJEgDf2Atm-gNL0_pDHU-11" edge="1">
          <mxGeometry relative="1" as="geometry" />
        </mxCell>
        <mxCell id="lJEgDf2Atm-gNL0_pDHU-21" value="" style="shape=rhombus;perimeter=rhombusPerimeter;whiteSpace=wrap;html=1;align=center;fontSize=16;strokeWidth=2;fontFamily=Inter;fontSource=https%3A%2F%2Ffonts.googleapis.com%2Fcss%3Ffamily%3DInter;fontStyle=1" parent="1" vertex="1">
          <mxGeometry x="735" y="291" width="30" height="30" as="geometry" />
        </mxCell>
        <mxCell id="lJEgDf2Atm-gNL0_pDHU-38" style="edgeStyle=none;curved=1;rounded=0;orthogonalLoop=1;jettySize=auto;html=1;exitX=0.5;exitY=1;exitDx=0;exitDy=0;entryX=0.5;entryY=0;entryDx=0;entryDy=0;fontSize=12;startSize=8;endSize=8;endArrow=none;endFill=0;strokeWidth=2;fontFamily=Inter;fontSource=https%3A%2F%2Ffonts.googleapis.com%2Fcss%3Ffamily%3DInter;fontStyle=1" parent="1" source="lJEgDf2Atm-gNL0_pDHU-22" target="lJEgDf2Atm-gNL0_pDHU-15" edge="1">
          <mxGeometry relative="1" as="geometry" />
        </mxCell>
        <mxCell id="lJEgDf2Atm-gNL0_pDHU-22" value="" style="shape=rhombus;perimeter=rhombusPerimeter;whiteSpace=wrap;html=1;align=center;fontSize=16;strokeWidth=2;fontFamily=Inter;fontSource=https%3A%2F%2Ffonts.googleapis.com%2Fcss%3Ffamily%3DInter;fontStyle=1" parent="1" vertex="1">
          <mxGeometry x="735" y="482" width="30" height="30" as="geometry" />
        </mxCell>
        <mxCell id="lJEgDf2Atm-gNL0_pDHU-40" style="edgeStyle=none;curved=1;rounded=0;orthogonalLoop=1;jettySize=auto;html=1;exitX=0;exitY=0.5;exitDx=0;exitDy=0;entryX=1;entryY=0.5;entryDx=0;entryDy=0;fontSize=12;startSize=8;endSize=8;endArrow=none;endFill=0;strokeWidth=4;fontFamily=Inter;fontSource=https%3A%2F%2Ffonts.googleapis.com%2Fcss%3Ffamily%3DInter;fontStyle=1" parent="1" source="lJEgDf2Atm-gNL0_pDHU-25" target="lJEgDf2Atm-gNL0_pDHU-16" edge="1">
          <mxGeometry relative="1" as="geometry" />
        </mxCell>
        <mxCell id="lJEgDf2Atm-gNL0_pDHU-25" value="" style="shape=rhombus;perimeter=rhombusPerimeter;whiteSpace=wrap;html=1;align=center;fontSize=16;strokeWidth=2;fontFamily=Inter;fontSource=https%3A%2F%2Ffonts.googleapis.com%2Fcss%3Ffamily%3DInter;fontStyle=1" parent="1" vertex="1">
          <mxGeometry x="585" y="577" width="30" height="30" as="geometry" />
        </mxCell>
        <mxCell id="lJEgDf2Atm-gNL0_pDHU-42" style="edgeStyle=none;curved=1;rounded=0;orthogonalLoop=1;jettySize=auto;html=1;exitX=0;exitY=0.5;exitDx=0;exitDy=0;entryX=1;entryY=0.5;entryDx=0;entryDy=0;fontSize=12;startSize=8;endSize=8;endArrow=none;endFill=0;strokeWidth=2;fontFamily=Inter;fontSource=https%3A%2F%2Ffonts.googleapis.com%2Fcss%3Ffamily%3DInter;fontStyle=1" parent="1" source="lJEgDf2Atm-gNL0_pDHU-26" target="lJEgDf2Atm-gNL0_pDHU-17" edge="1">
          <mxGeometry relative="1" as="geometry" />
        </mxCell>
        <mxCell id="lJEgDf2Atm-gNL0_pDHU-26" value="" style="shape=rhombus;perimeter=rhombusPerimeter;whiteSpace=wrap;html=1;align=center;fontSize=16;strokeWidth=2;fontFamily=Inter;fontSource=https%3A%2F%2Ffonts.googleapis.com%2Fcss%3Ffamily%3DInter;fontStyle=1" parent="1" vertex="1">
          <mxGeometry x="115" y="577" width="30" height="30" as="geometry" />
        </mxCell>
        <mxCell id="lJEgDf2Atm-gNL0_pDHU-44" value="(0, 1)" style="text;strokeColor=none;fillColor=none;spacingLeft=4;spacingRight=4;overflow=hidden;rotatable=0;points=[[0,0.5],[1,0.5]];portConstraint=eastwest;fontSize=12;whiteSpace=wrap;html=1;fontFamily=Inter;fontSource=https%3A%2F%2Ffonts.googleapis.com%2Fcss%3Ffamily%3DInter;align=center;verticalAlign=middle;fontStyle=1" parent="1" vertex="1">
          <mxGeometry x="26" y="-4" width="45" height="20" as="geometry" />
        </mxCell>
        <mxCell id="lJEgDf2Atm-gNL0_pDHU-45" value="(1, 1)" style="text;strokeColor=none;fillColor=none;spacingLeft=4;spacingRight=4;overflow=hidden;rotatable=0;points=[[0,0.5],[1,0.5]];portConstraint=eastwest;fontSize=12;whiteSpace=wrap;html=1;fontFamily=Inter;fontSource=https%3A%2F%2Ffonts.googleapis.com%2Fcss%3Ffamily%3DInter;align=center;verticalAlign=middle;fontStyle=1" parent="1" vertex="1">
          <mxGeometry x="-105" y="-3" width="45" height="20" as="geometry" />
        </mxCell>
        <mxCell id="lJEgDf2Atm-gNL0_pDHU-46" value="(0, n)" style="text;strokeColor=none;fillColor=none;spacingLeft=4;spacingRight=4;overflow=hidden;rotatable=0;points=[[0,0.5],[1,0.5]];portConstraint=eastwest;fontSize=12;whiteSpace=wrap;html=1;fontFamily=Inter;fontSource=https%3A%2F%2Ffonts.googleapis.com%2Fcss%3Ffamily%3DInter;align=center;verticalAlign=middle;fontStyle=1" parent="1" vertex="1">
          <mxGeometry x="302" y="-4" width="50" height="20" as="geometry" />
        </mxCell>
        <mxCell id="lJEgDf2Atm-gNL0_pDHU-47" value="(1, 1)" style="text;strokeColor=none;fillColor=none;spacingLeft=4;spacingRight=4;overflow=hidden;rotatable=0;points=[[0,0.5],[1,0.5]];portConstraint=eastwest;fontSize=12;whiteSpace=wrap;html=1;fontFamily=Inter;fontSource=https%3A%2F%2Ffonts.googleapis.com%2Fcss%3Ffamily%3DInter;align=center;verticalAlign=middle;fontStyle=1" parent="1" vertex="1">
          <mxGeometry x="176" y="-3" width="45" height="20" as="geometry" />
        </mxCell>
        <mxCell id="lJEgDf2Atm-gNL0_pDHU-48" value="(1, 1)" style="text;strokeColor=none;fillColor=none;spacingLeft=4;spacingRight=4;overflow=hidden;rotatable=0;points=[[0,0.5],[1,0.5]];portConstraint=eastwest;fontSize=12;whiteSpace=wrap;html=1;fontFamily=Inter;fontSource=https%3A%2F%2Ffonts.googleapis.com%2Fcss%3Ffamily%3DInter;align=center;verticalAlign=middle;fontStyle=1" parent="1" vertex="1">
          <mxGeometry x="653" y="-3" width="45" height="20" as="geometry" />
        </mxCell>
        <mxCell id="lJEgDf2Atm-gNL0_pDHU-49" value="(0, n)" style="text;strokeColor=none;fillColor=none;spacingLeft=4;spacingRight=4;overflow=hidden;rotatable=0;points=[[0,0.5],[1,0.5]];portConstraint=eastwest;fontSize=12;whiteSpace=wrap;html=1;fontFamily=Inter;fontSource=https%3A%2F%2Ffonts.googleapis.com%2Fcss%3Ffamily%3DInter;align=center;verticalAlign=middle;fontStyle=1" parent="1" vertex="1">
          <mxGeometry x="522" y="-4" width="45" height="20" as="geometry" />
        </mxCell>
        <mxCell id="lJEgDf2Atm-gNL0_pDHU-50" value="(1, 1)" style="text;strokeColor=none;fillColor=none;spacingLeft=4;spacingRight=4;overflow=hidden;rotatable=0;points=[[0,0.5],[1,0.5]];portConstraint=eastwest;fontSize=12;whiteSpace=wrap;html=1;fontFamily=Inter;fontSource=https%3A%2F%2Ffonts.googleapis.com%2Fcss%3Ffamily%3DInter;align=center;verticalAlign=middle;fontStyle=1" parent="1" vertex="1">
          <mxGeometry x="752" y="168" width="45" height="20" as="geometry" />
        </mxCell>
        <mxCell id="lJEgDf2Atm-gNL0_pDHU-51" value="(0, n)" style="text;strokeColor=none;fillColor=none;spacingLeft=4;spacingRight=4;overflow=hidden;rotatable=0;points=[[0,0.5],[1,0.5]];portConstraint=eastwest;fontSize=12;whiteSpace=wrap;html=1;fontFamily=Inter;fontSource=https%3A%2F%2Ffonts.googleapis.com%2Fcss%3Ffamily%3DInter;align=center;verticalAlign=middle;fontStyle=1" parent="1" vertex="1">
          <mxGeometry x="752.5" y="43" width="45" height="20" as="geometry" />
        </mxCell>
        <mxCell id="lJEgDf2Atm-gNL0_pDHU-52" value="(1, 1)" style="text;strokeColor=none;fillColor=none;spacingLeft=4;spacingRight=4;overflow=hidden;rotatable=0;points=[[0,0.5],[1,0.5]];portConstraint=eastwest;fontSize=12;whiteSpace=wrap;html=1;fontFamily=Inter;fontSource=https%3A%2F%2Ffonts.googleapis.com%2Fcss%3Ffamily%3DInter;align=center;verticalAlign=middle;fontStyle=1" parent="1" vertex="1">
          <mxGeometry x="752" y="234" width="45" height="20" as="geometry" />
        </mxCell>
        <mxCell id="lJEgDf2Atm-gNL0_pDHU-53" value="(1, 1)" style="text;strokeColor=none;fillColor=none;spacingLeft=4;spacingRight=4;overflow=hidden;rotatable=0;points=[[0,0.5],[1,0.5]];portConstraint=eastwest;fontSize=12;whiteSpace=wrap;html=1;fontFamily=Inter;fontSource=https%3A%2F%2Ffonts.googleapis.com%2Fcss%3Ffamily%3DInter;align=center;verticalAlign=middle;fontStyle=1" parent="1" vertex="1">
          <mxGeometry x="752" y="550" width="45" height="20" as="geometry" />
        </mxCell>
        <mxCell id="lJEgDf2Atm-gNL0_pDHU-54" value="(0, n)" style="text;strokeColor=none;fillColor=none;spacingLeft=4;spacingRight=4;overflow=hidden;rotatable=0;points=[[0,0.5],[1,0.5]];portConstraint=eastwest;fontSize=12;whiteSpace=wrap;html=1;fontFamily=Inter;fontSource=https%3A%2F%2Ffonts.googleapis.com%2Fcss%3Ffamily%3DInter;align=center;verticalAlign=middle;fontStyle=1" parent="1" vertex="1">
          <mxGeometry x="752.5" y="359" width="45" height="20" as="geometry" />
        </mxCell>
        <mxCell id="lJEgDf2Atm-gNL0_pDHU-55" value="(0, n)" style="text;strokeColor=none;fillColor=none;spacingLeft=4;spacingRight=4;overflow=hidden;rotatable=0;points=[[0,0.5],[1,0.5]];portConstraint=eastwest;fontSize=12;whiteSpace=wrap;html=1;fontFamily=Inter;fontSource=https%3A%2F%2Ffonts.googleapis.com%2Fcss%3Ffamily%3DInter;align=center;verticalAlign=middle;fontStyle=1" parent="1" vertex="1">
          <mxGeometry x="752.5" y="425" width="45" height="20" as="geometry" />
        </mxCell>
        <mxCell id="lJEgDf2Atm-gNL0_pDHU-56" value="(1, 1)" style="text;strokeColor=none;fillColor=none;spacingLeft=4;spacingRight=4;overflow=hidden;rotatable=0;points=[[0,0.5],[1,0.5]];portConstraint=eastwest;fontSize=12;whiteSpace=wrap;html=1;fontFamily=Inter;fontSource=https%3A%2F%2Ffonts.googleapis.com%2Fcss%3Ffamily%3DInter;align=center;verticalAlign=middle;fontStyle=1" parent="1" vertex="1">
          <mxGeometry x="653" y="570" width="45" height="20" as="geometry" />
        </mxCell>
        <mxCell id="lJEgDf2Atm-gNL0_pDHU-57" value="(1, 1)" style="text;strokeColor=none;fillColor=none;spacingLeft=4;spacingRight=4;overflow=hidden;rotatable=0;points=[[0,0.5],[1,0.5]];portConstraint=eastwest;fontSize=12;whiteSpace=wrap;html=1;fontFamily=Inter;fontSource=https%3A%2F%2Ffonts.googleapis.com%2Fcss%3Ffamily%3DInter;align=center;verticalAlign=middle;fontStyle=1" parent="1" vertex="1">
          <mxGeometry x="33" y="570" width="45" height="20" as="geometry" />
        </mxCell>
        <mxCell id="lJEgDf2Atm-gNL0_pDHU-58" value="(0, n)" style="text;strokeColor=none;fillColor=none;spacingLeft=4;spacingRight=4;overflow=hidden;rotatable=0;points=[[0,0.5],[1,0.5]];portConstraint=eastwest;fontSize=12;whiteSpace=wrap;html=1;fontFamily=Inter;fontSource=https%3A%2F%2Ffonts.googleapis.com%2Fcss%3Ffamily%3DInter;align=center;verticalAlign=middle;fontStyle=1" parent="1" vertex="1">
          <mxGeometry x="183" y="569" width="45" height="20" as="geometry" />
        </mxCell>
        <mxCell id="lJEgDf2Atm-gNL0_pDHU-59" value="(0, n)" style="text;strokeColor=none;fillColor=none;spacingLeft=4;spacingRight=4;overflow=hidden;rotatable=0;points=[[0,0.5],[1,0.5]];portConstraint=eastwest;fontSize=12;whiteSpace=wrap;html=1;fontFamily=Inter;fontSource=https%3A%2F%2Ffonts.googleapis.com%2Fcss%3Ffamily%3DInter;align=center;verticalAlign=middle;fontStyle=1" parent="1" vertex="1">
          <mxGeometry x="503" y="569" width="45" height="20" as="geometry" />
        </mxCell>
        <mxCell id="lJEgDf2Atm-gNL0_pDHU-61" value="id" style="text;strokeColor=none;fillColor=none;spacingLeft=4;spacingRight=4;overflow=hidden;rotatable=0;points=[[0,0.5],[1,0.5]];portConstraint=eastwest;fontSize=12;whiteSpace=wrap;html=1;fontFamily=Inter;fontSource=https%3A%2F%2Ffonts.googleapis.com%2Fcss%3Ffamily%3DInter;align=center;verticalAlign=middle;fontStyle=1" parent="1" vertex="1">
          <mxGeometry x="-153" y="-72" width="40" height="20" as="geometry" />
        </mxCell>
        <mxCell id="lJEgDf2Atm-gNL0_pDHU-62" style="edgeStyle=none;curved=1;rounded=0;orthogonalLoop=1;jettySize=auto;html=1;exitX=0.75;exitY=0;exitDx=0;exitDy=0;fontSize=12;startSize=8;endSize=8;endArrow=oval;endFill=0;strokeWidth=2;" parent="1" edge="1">
          <mxGeometry relative="1" as="geometry">
            <mxPoint x="-182.8888888888889" y="-44" as="targetPoint" />
            <mxPoint x="-183" y="-1" as="sourcePoint" />
          </mxGeometry>
        </mxCell>
        <mxCell id="lJEgDf2Atm-gNL0_pDHU-63" value="code" style="text;strokeColor=none;fillColor=none;spacingLeft=4;spacingRight=4;overflow=hidden;rotatable=0;points=[[0,0.5],[1,0.5]];portConstraint=eastwest;fontSize=12;whiteSpace=wrap;html=1;fontFamily=Inter;fontSource=https%3A%2F%2Ffonts.googleapis.com%2Fcss%3Ffamily%3DInter;align=center;verticalAlign=middle;fontStyle=1" parent="1" vertex="1">
          <mxGeometry x="-203" y="-72" width="40" height="20" as="geometry" />
        </mxCell>
        <mxCell id="lJEgDf2Atm-gNL0_pDHU-68" value="email" style="text;strokeColor=none;fillColor=none;spacingLeft=4;spacingRight=4;overflow=hidden;rotatable=0;points=[[0,0.5],[1,0.5]];portConstraint=eastwest;fontSize=12;whiteSpace=wrap;html=1;fontFamily=Inter;fontSource=https%3A%2F%2Ffonts.googleapis.com%2Fcss%3Ffamily%3DInter;align=center;verticalAlign=middle;fontStyle=1" parent="1" vertex="1">
          <mxGeometry x="-141" y="98" width="40" height="20" as="geometry" />
        </mxCell>
        <mxCell id="lJEgDf2Atm-gNL0_pDHU-71" style="edgeStyle=none;curved=1;rounded=0;orthogonalLoop=1;jettySize=auto;html=1;exitX=1;exitY=0.25;exitDx=0;exitDy=0;fontSize=12;startSize=8;endSize=8;endArrow=oval;endFill=0;strokeWidth=2;" parent="1" edge="1">
          <mxGeometry relative="1" as="geometry">
            <mxPoint x="854.3076923076922" y="220.0769230769231" as="targetPoint" />
            <mxPoint x="800" y="220" as="sourcePoint" />
          </mxGeometry>
        </mxCell>
        <mxCell id="lJEgDf2Atm-gNL0_pDHU-74" style="edgeStyle=none;curved=1;rounded=0;orthogonalLoop=1;jettySize=auto;html=1;exitX=0;exitY=0.25;exitDx=0;exitDy=0;fontSize=12;startSize=8;endSize=8;endArrow=oval;endFill=0;strokeWidth=2;" parent="1" edge="1">
          <mxGeometry relative="1" as="geometry">
            <mxPoint x="642" y="220" as="targetPoint" />
            <mxPoint x="700" y="220" as="sourcePoint" />
          </mxGeometry>
        </mxCell>
        <mxCell id="lJEgDf2Atm-gNL0_pDHU-75" value="id" style="text;strokeColor=none;fillColor=none;spacingLeft=4;spacingRight=4;overflow=hidden;rotatable=0;points=[[0,0.5],[1,0.5]];portConstraint=eastwest;fontSize=12;whiteSpace=wrap;html=1;fontFamily=Inter;fontSource=https%3A%2F%2Ffonts.googleapis.com%2Fcss%3Ffamily%3DInter;align=left;verticalAlign=middle;fontStyle=1" parent="1" vertex="1">
          <mxGeometry x="861" y="190" width="42" height="20" as="geometry" />
        </mxCell>
        <mxCell id="lJEgDf2Atm-gNL0_pDHU-76" value="letter" style="text;strokeColor=none;fillColor=none;spacingLeft=4;spacingRight=4;overflow=hidden;rotatable=0;points=[[0,0.5],[1,0.5]];portConstraint=eastwest;fontSize=12;whiteSpace=wrap;html=1;fontFamily=Inter;fontSource=https%3A%2F%2Ffonts.googleapis.com%2Fcss%3Ffamily%3DInter;align=left;verticalAlign=middle;fontStyle=1" parent="1" vertex="1">
          <mxGeometry x="861" y="210" width="49" height="20" as="geometry" />
        </mxCell>
        <mxCell id="lJEgDf2Atm-gNL0_pDHU-77" value="name" style="text;strokeColor=none;fillColor=none;spacingLeft=4;spacingRight=4;overflow=hidden;rotatable=0;points=[[0,0.5],[1,0.5]];portConstraint=eastwest;fontSize=12;whiteSpace=wrap;html=1;fontFamily=Inter;fontSource=https%3A%2F%2Ffonts.googleapis.com%2Fcss%3Ffamily%3DInter;align=right;verticalAlign=middle;fontStyle=1" parent="1" vertex="1">
          <mxGeometry x="588" y="190" width="49" height="20" as="geometry" />
        </mxCell>
        <mxCell id="lJEgDf2Atm-gNL0_pDHU-78" value="description" style="text;strokeColor=none;fillColor=none;spacingLeft=4;spacingRight=4;overflow=hidden;rotatable=0;points=[[0,0.5],[1,0.5]];portConstraint=eastwest;fontSize=12;whiteSpace=wrap;html=1;fontFamily=Inter;fontSource=https%3A%2F%2Ffonts.googleapis.com%2Fcss%3Ffamily%3DInter;align=right;verticalAlign=middle;fontStyle=1" parent="1" vertex="1">
          <mxGeometry x="557" y="210" width="80" height="20" as="geometry" />
        </mxCell>
        <mxCell id="lJEgDf2Atm-gNL0_pDHU-81" style="edgeStyle=none;curved=1;rounded=0;orthogonalLoop=1;jettySize=auto;html=1;exitX=0.75;exitY=0;exitDx=0;exitDy=0;fontSize=12;startSize=8;endSize=8;endArrow=oval;endFill=1;strokeWidth=2;" parent="1" edge="1">
          <mxGeometry relative="1" as="geometry">
            <mxPoint x="725.1111111111111" y="-44" as="targetPoint" />
            <mxPoint x="725" y="-1" as="sourcePoint" />
          </mxGeometry>
        </mxCell>
        <mxCell id="lJEgDf2Atm-gNL0_pDHU-82" value="id" style="text;strokeColor=none;fillColor=none;spacingLeft=4;spacingRight=4;overflow=hidden;rotatable=0;points=[[0,0.5],[1,0.5]];portConstraint=eastwest;fontSize=12;whiteSpace=wrap;html=1;fontFamily=Inter;fontSource=https%3A%2F%2Ffonts.googleapis.com%2Fcss%3Ffamily%3DInter;align=center;verticalAlign=middle;fontStyle=1" parent="1" vertex="1">
          <mxGeometry x="705" y="-72" width="40" height="20" as="geometry" />
        </mxCell>
        <mxCell id="lJEgDf2Atm-gNL0_pDHU-83" style="edgeStyle=none;curved=1;rounded=0;orthogonalLoop=1;jettySize=auto;html=1;exitX=0.75;exitY=0;exitDx=0;exitDy=0;fontSize=12;startSize=8;endSize=8;endArrow=oval;endFill=0;strokeWidth=2;" parent="1" edge="1">
          <mxGeometry relative="1" as="geometry">
            <mxPoint x="774.911111111111" y="-44" as="targetPoint" />
            <mxPoint x="774.8" y="-1" as="sourcePoint" />
          </mxGeometry>
        </mxCell>
        <mxCell id="lJEgDf2Atm-gNL0_pDHU-84" value="text" style="text;strokeColor=none;fillColor=none;spacingLeft=4;spacingRight=4;overflow=hidden;rotatable=0;points=[[0,0.5],[1,0.5]];portConstraint=eastwest;fontSize=12;whiteSpace=wrap;html=1;fontFamily=Inter;fontSource=https%3A%2F%2Ffonts.googleapis.com%2Fcss%3Ffamily%3DInter;align=center;verticalAlign=middle;fontStyle=1" parent="1" vertex="1">
          <mxGeometry x="755" y="-72" width="40" height="20" as="geometry" />
        </mxCell>
        <mxCell id="lJEgDf2Atm-gNL0_pDHU-85" style="edgeStyle=none;curved=1;rounded=0;orthogonalLoop=1;jettySize=auto;html=1;exitX=0.75;exitY=0;exitDx=0;exitDy=0;fontSize=12;startSize=8;endSize=8;endArrow=oval;endFill=1;strokeWidth=2;" parent="1" edge="1">
          <mxGeometry relative="1" as="geometry">
            <mxPoint x="85.11111111111109" y="-44" as="targetPoint" />
            <mxPoint x="85" y="-1" as="sourcePoint" />
          </mxGeometry>
        </mxCell>
        <mxCell id="lJEgDf2Atm-gNL0_pDHU-86" value="id" style="text;strokeColor=none;fillColor=none;spacingLeft=4;spacingRight=4;overflow=hidden;rotatable=0;points=[[0,0.5],[1,0.5]];portConstraint=eastwest;fontSize=12;whiteSpace=wrap;html=1;fontFamily=Inter;fontSource=https%3A%2F%2Ffonts.googleapis.com%2Fcss%3Ffamily%3DInter;align=center;verticalAlign=middle;fontStyle=1" parent="1" vertex="1">
          <mxGeometry x="65" y="-72" width="40" height="20" as="geometry" />
        </mxCell>
        <mxCell id="lJEgDf2Atm-gNL0_pDHU-94" style="edgeStyle=none;curved=1;rounded=0;orthogonalLoop=1;jettySize=auto;html=1;exitX=0.75;exitY=0;exitDx=0;exitDy=0;fontSize=12;startSize=8;endSize=8;endArrow=oval;endFill=1;strokeWidth=2;" parent="1" edge="1">
          <mxGeometry relative="1" as="geometry">
            <mxPoint x="436.6111111111111" y="-44" as="targetPoint" />
            <mxPoint x="436.5" y="-1" as="sourcePoint" />
          </mxGeometry>
        </mxCell>
        <mxCell id="lJEgDf2Atm-gNL0_pDHU-95" value="id" style="text;strokeColor=none;fillColor=none;spacingLeft=4;spacingRight=4;overflow=hidden;rotatable=0;points=[[0,0.5],[1,0.5]];portConstraint=eastwest;fontSize=12;whiteSpace=wrap;html=1;fontFamily=Inter;fontSource=https%3A%2F%2Ffonts.googleapis.com%2Fcss%3Ffamily%3DInter;align=center;verticalAlign=middle;fontStyle=1" parent="1" vertex="1">
          <mxGeometry x="416.5" y="-72" width="40" height="20" as="geometry" />
        </mxCell>
        <mxCell id="lJEgDf2Atm-gNL0_pDHU-99" value="id" style="text;strokeColor=none;fillColor=none;spacingLeft=4;spacingRight=4;overflow=hidden;rotatable=0;points=[[0,0.5],[1,0.5]];portConstraint=eastwest;fontSize=12;whiteSpace=wrap;html=1;fontFamily=Inter;fontSource=https%3A%2F%2Ffonts.googleapis.com%2Fcss%3Ffamily%3DInter;align=right;verticalAlign=middle;fontStyle=1" parent="1" vertex="1">
          <mxGeometry x="-175" y="582" width="40" height="20" as="geometry" />
        </mxCell>
        <mxCell id="lJEgDf2Atm-gNL0_pDHU-100" value="name" style="text;strokeColor=none;fillColor=none;spacingLeft=4;spacingRight=4;overflow=hidden;rotatable=0;points=[[0,0.5],[1,0.5]];portConstraint=eastwest;fontSize=12;whiteSpace=wrap;html=1;fontFamily=Inter;fontSource=https%3A%2F%2Ffonts.googleapis.com%2Fcss%3Ffamily%3DInter;align=center;verticalAlign=middle;fontStyle=1" parent="1" vertex="1">
          <mxGeometry x="-45" y="495" width="50" height="20" as="geometry" />
        </mxCell>
        <mxCell id="lJEgDf2Atm-gNL0_pDHU-101" value="site" style="text;strokeColor=none;fillColor=none;spacingLeft=4;spacingRight=4;overflow=hidden;rotatable=0;points=[[0,0.5],[1,0.5]];portConstraint=eastwest;fontSize=12;whiteSpace=wrap;html=1;fontFamily=Inter;fontSource=https%3A%2F%2Ffonts.googleapis.com%2Fcss%3Ffamily%3DInter;align=center;verticalAlign=middle;fontStyle=1" parent="1" vertex="1">
          <mxGeometry x="-45" y="671" width="50" height="20" as="geometry" />
        </mxCell>
        <mxCell id="lJEgDf2Atm-gNL0_pDHU-104" value="id" style="text;strokeColor=none;fillColor=none;spacingLeft=4;spacingRight=4;overflow=hidden;rotatable=0;points=[[0,0.5],[1,0.5]];portConstraint=eastwest;fontSize=12;whiteSpace=wrap;html=1;fontFamily=Inter;fontSource=https%3A%2F%2Ffonts.googleapis.com%2Fcss%3Ffamily%3DInter;align=left;verticalAlign=middle;fontStyle=1" parent="1" vertex="1">
          <mxGeometry x="870" y="582" width="40" height="20" as="geometry" />
        </mxCell>
        <mxCell id="lJEgDf2Atm-gNL0_pDHU-105" value="name" style="text;strokeColor=none;fillColor=none;spacingLeft=4;spacingRight=4;overflow=hidden;rotatable=0;points=[[0,0.5],[1,0.5]];portConstraint=eastwest;fontSize=12;whiteSpace=wrap;html=1;fontFamily=Inter;fontSource=https%3A%2F%2Ffonts.googleapis.com%2Fcss%3Ffamily%3DInter;align=center;verticalAlign=middle;fontStyle=1" parent="1" vertex="1">
          <mxGeometry x="727.5" y="671" width="45" height="20" as="geometry" />
        </mxCell>
        <mxCell id="lJEgDf2Atm-gNL0_pDHU-106" style="edgeStyle=none;curved=1;rounded=0;orthogonalLoop=1;jettySize=auto;html=1;exitX=1;exitY=0.25;exitDx=0;exitDy=0;fontSize=12;startSize=8;endSize=8;endArrow=oval;endFill=0;strokeWidth=2;" parent="1" edge="1">
          <mxGeometry relative="1" as="geometry">
            <mxPoint x="886.8076923076922" y="401.0769230769231" as="targetPoint" />
            <mxPoint x="832.5" y="401" as="sourcePoint" />
          </mxGeometry>
        </mxCell>
        <mxCell id="lJEgDf2Atm-gNL0_pDHU-107" value="is_main_pathway" style="text;strokeColor=none;fillColor=none;spacingLeft=4;spacingRight=4;overflow=hidden;rotatable=0;points=[[0,0.5],[1,0.5]];portConstraint=eastwest;fontSize=12;whiteSpace=wrap;html=1;fontFamily=Inter;fontSource=https%3A%2F%2Ffonts.googleapis.com%2Fcss%3Ffamily%3DInter;align=left;verticalAlign=middle;fontStyle=1" parent="1" vertex="1">
          <mxGeometry x="893.5" y="391" width="110.5" height="20" as="geometry" />
        </mxCell>
        <mxCell id="lJEgDf2Atm-gNL0_pDHU-109" value="id" style="text;strokeColor=none;fillColor=none;spacingLeft=4;spacingRight=4;overflow=hidden;rotatable=0;points=[[0,0.5],[1,0.5]];portConstraint=eastwest;fontSize=12;whiteSpace=wrap;html=1;fontFamily=Inter;fontSource=https%3A%2F%2Ffonts.googleapis.com%2Fcss%3Ffamily%3DInter;align=right;verticalAlign=middle;fontStyle=1" parent="1" vertex="1">
          <mxGeometry x="561" y="391" width="42" height="20" as="geometry" />
        </mxCell>
        <mxCell id="lJEgDf2Atm-gNL0_pDHU-110" style="edgeStyle=none;curved=1;rounded=0;orthogonalLoop=1;jettySize=auto;html=1;exitX=0.5;exitY=0;exitDx=0;exitDy=0;fontSize=12;startSize=8;endSize=8;endArrow=oval;endFill=1;strokeWidth=2;" parent="1" edge="1">
          <mxGeometry relative="1" as="geometry">
            <mxPoint x="366.04761904761904" y="523.2380952380952" as="targetPoint" />
            <mxPoint x="366" y="572" as="sourcePoint" />
          </mxGeometry>
        </mxCell>
        <mxCell id="lJEgDf2Atm-gNL0_pDHU-111" value="id" style="text;strokeColor=none;fillColor=none;spacingLeft=4;spacingRight=4;overflow=hidden;rotatable=0;points=[[0,0.5],[1,0.5]];portConstraint=eastwest;fontSize=12;whiteSpace=wrap;html=1;fontFamily=Inter;fontSource=https%3A%2F%2Ffonts.googleapis.com%2Fcss%3Ffamily%3DInter;align=center;verticalAlign=middle;fontStyle=1" parent="1" vertex="1">
          <mxGeometry x="341" y="495" width="50" height="20" as="geometry" />
        </mxCell>
        <mxCell id="lJEgDf2Atm-gNL0_pDHU-126" style="edgeStyle=orthogonalEdgeStyle;orthogonalLoop=1;jettySize=auto;html=1;exitX=0.75;exitY=1;exitDx=0;exitDy=0;fontSize=12;startSize=8;endSize=8;endArrow=oval;endFill=0;strokeWidth=2;curved=1;" parent="1" edge="1">
          <mxGeometry relative="1" as="geometry">
            <mxPoint x="180" y="282" as="targetPoint" />
            <mxPoint x="140" y="230" as="sourcePoint" />
            <Array as="points">
              <mxPoint x="140" y="282" />
            </Array>
          </mxGeometry>
        </mxCell>
        <mxCell id="lJEgDf2Atm-gNL0_pDHU-132" style="edgeStyle=none;curved=1;rounded=0;orthogonalLoop=1;jettySize=auto;html=1;exitX=1;exitY=0.25;exitDx=0;exitDy=0;fontSize=12;startSize=8;endSize=8;endArrow=oval;endFill=0;strokeWidth=2;" parent="1" source="lJEgDf2Atm-gNL0_pDHU-112" edge="1">
          <mxGeometry relative="1" as="geometry">
            <mxPoint x="226.4067796610169" y="200.01694915254234" as="targetPoint" />
          </mxGeometry>
        </mxCell>
        <mxCell id="lJEgDf2Atm-gNL0_pDHU-135" style="edgeStyle=none;curved=1;rounded=0;orthogonalLoop=1;jettySize=auto;html=1;exitX=0;exitY=0.25;exitDx=0;exitDy=0;fontSize=12;startSize=8;endSize=8;endArrow=oval;endFill=1;strokeWidth=2;" parent="1" source="lJEgDf2Atm-gNL0_pDHU-112" edge="1">
          <mxGeometry relative="1" as="geometry">
            <mxPoint x="20" y="200" as="targetPoint" />
          </mxGeometry>
        </mxCell>
        <mxCell id="lJEgDf2Atm-gNL0_pDHU-112" value="result" style="whiteSpace=wrap;html=1;align=center;fontSize=14;strokeWidth=2;fontFamily=Inter;fontSource=https%3A%2F%2Ffonts.googleapis.com%2Fcss%3Ffamily%3DInter;fontStyle=1;shadow=1;rounded=1;" parent="1" vertex="1">
          <mxGeometry x="73" y="190" width="100" height="40" as="geometry" />
        </mxCell>
        <mxCell id="lJEgDf2Atm-gNL0_pDHU-113" style="edgeStyle=none;curved=1;rounded=0;orthogonalLoop=1;jettySize=auto;html=1;exitX=0.75;exitY=0;exitDx=0;exitDy=0;fontSize=12;startSize=8;endSize=8;endArrow=oval;endFill=0;strokeWidth=2;" parent="1" edge="1">
          <mxGeometry relative="1" as="geometry">
            <mxPoint x="161.1111111111111" y="-44" as="targetPoint" />
            <mxPoint x="161" y="-1" as="sourcePoint" />
          </mxGeometry>
        </mxCell>
        <mxCell id="lJEgDf2Atm-gNL0_pDHU-115" value="created_at" style="text;strokeColor=none;fillColor=none;spacingLeft=4;spacingRight=4;overflow=hidden;rotatable=0;points=[[0,0.5],[1,0.5]];portConstraint=eastwest;fontSize=12;whiteSpace=wrap;html=1;fontFamily=Inter;fontSource=https%3A%2F%2Ffonts.googleapis.com%2Fcss%3Ffamily%3DInter;align=center;verticalAlign=middle;fontStyle=1" parent="1" vertex="1">
          <mxGeometry x="124" y="-72" width="75" height="20" as="geometry" />
        </mxCell>
        <mxCell id="lJEgDf2Atm-gNL0_pDHU-129" style="edgeStyle=orthogonalEdgeStyle;orthogonalLoop=1;jettySize=auto;html=1;exitX=0.75;exitY=1;exitDx=0;exitDy=0;fontSize=12;startSize=8;endSize=8;endArrow=oval;endFill=0;strokeWidth=2;curved=1;" parent="1" edge="1">
          <mxGeometry relative="1" as="geometry">
            <mxPoint x="180" y="265" as="targetPoint" />
            <mxPoint x="148" y="230" as="sourcePoint" />
            <Array as="points">
              <mxPoint x="148" y="265" />
            </Array>
          </mxGeometry>
        </mxCell>
        <mxCell id="lJEgDf2Atm-gNL0_pDHU-130" style="edgeStyle=orthogonalEdgeStyle;orthogonalLoop=1;jettySize=auto;html=1;exitX=0.75;exitY=1;exitDx=0;exitDy=0;fontSize=12;startSize=8;endSize=8;endArrow=oval;endFill=0;strokeWidth=2;curved=1;" parent="1" edge="1">
          <mxGeometry relative="1" as="geometry">
            <mxPoint x="180" y="248" as="targetPoint" />
            <mxPoint x="156" y="230" as="sourcePoint" />
            <Array as="points">
              <mxPoint x="156" y="248" />
            </Array>
          </mxGeometry>
        </mxCell>
        <mxCell id="lJEgDf2Atm-gNL0_pDHU-138" style="edgeStyle=orthogonalEdgeStyle;orthogonalLoop=1;jettySize=auto;html=1;exitX=0.75;exitY=1;exitDx=0;exitDy=0;fontSize=12;startSize=8;endSize=8;endArrow=oval;endFill=0;strokeWidth=2;curved=1;" parent="1" edge="1">
          <mxGeometry relative="1" as="geometry">
            <mxPoint x="180" y="298" as="targetPoint" />
            <mxPoint x="132" y="230" as="sourcePoint" />
            <Array as="points">
              <mxPoint x="132" y="298" />
            </Array>
          </mxGeometry>
        </mxCell>
        <mxCell id="lJEgDf2Atm-gNL0_pDHU-140" style="edgeStyle=orthogonalEdgeStyle;orthogonalLoop=1;jettySize=auto;html=1;exitX=0.75;exitY=1;exitDx=0;exitDy=0;fontSize=12;startSize=8;endSize=8;endArrow=oval;endFill=0;strokeWidth=2;curved=1;" parent="1" edge="1">
          <mxGeometry relative="1" as="geometry">
            <mxPoint x="65" y="298" as="targetPoint" />
            <mxPoint x="115" y="230" as="sourcePoint" />
            <Array as="points">
              <mxPoint x="115" y="298" />
            </Array>
          </mxGeometry>
        </mxCell>
        <mxCell id="lJEgDf2Atm-gNL0_pDHU-141" style="edgeStyle=orthogonalEdgeStyle;orthogonalLoop=1;jettySize=auto;html=1;exitX=0.75;exitY=1;exitDx=0;exitDy=0;fontSize=12;startSize=8;endSize=8;endArrow=oval;endFill=0;strokeWidth=2;curved=1;" parent="1" edge="1">
          <mxGeometry relative="1" as="geometry">
            <mxPoint x="65" y="282" as="targetPoint" />
            <mxPoint x="107" y="230" as="sourcePoint" />
            <Array as="points">
              <mxPoint x="107" y="282" />
            </Array>
          </mxGeometry>
        </mxCell>
        <mxCell id="lJEgDf2Atm-gNL0_pDHU-142" style="edgeStyle=orthogonalEdgeStyle;orthogonalLoop=1;jettySize=auto;html=1;exitX=0.75;exitY=1;exitDx=0;exitDy=0;fontSize=12;startSize=8;endSize=8;endArrow=oval;endFill=0;strokeWidth=2;curved=1;" parent="1" edge="1">
          <mxGeometry relative="1" as="geometry">
            <mxPoint x="65" y="265" as="targetPoint" />
            <mxPoint x="98" y="230" as="sourcePoint" />
            <Array as="points">
              <mxPoint x="98" y="265" />
            </Array>
          </mxGeometry>
        </mxCell>
        <mxCell id="lJEgDf2Atm-gNL0_pDHU-143" style="edgeStyle=orthogonalEdgeStyle;orthogonalLoop=1;jettySize=auto;html=1;exitX=0.75;exitY=1;exitDx=0;exitDy=0;fontSize=12;startSize=8;endSize=8;endArrow=oval;endFill=0;strokeWidth=2;curved=1;" parent="1" edge="1">
          <mxGeometry relative="1" as="geometry">
            <mxPoint x="65" y="248" as="targetPoint" />
            <mxPoint x="89" y="230" as="sourcePoint" />
            <Array as="points">
              <mxPoint x="89" y="248" />
            </Array>
          </mxGeometry>
        </mxCell>
        <mxCell id="lJEgDf2Atm-gNL0_pDHU-146" style="edgeStyle=none;curved=1;rounded=0;orthogonalLoop=1;jettySize=auto;html=1;exitX=0.25;exitY=1;exitDx=0;exitDy=0;fontSize=12;startSize=8;endSize=8;endArrow=oval;endFill=0;strokeWidth=2;" parent="1" edge="1">
          <mxGeometry relative="1" as="geometry">
            <mxPoint x="-195" y="88.85714285714289" as="targetPoint" />
            <mxPoint x="-195" y="39" as="sourcePoint" />
          </mxGeometry>
        </mxCell>
        <mxCell id="lJEgDf2Atm-gNL0_pDHU-147" value="username" style="text;strokeColor=none;fillColor=none;spacingLeft=4;spacingRight=4;overflow=hidden;rotatable=0;points=[[0,0.5],[1,0.5]];portConstraint=eastwest;fontSize=12;whiteSpace=wrap;html=1;fontFamily=Inter;fontSource=https%3A%2F%2Ffonts.googleapis.com%2Fcss%3Ffamily%3DInter;align=center;verticalAlign=middle;fontStyle=1" parent="1" vertex="1">
          <mxGeometry x="-232.5" y="98" width="75" height="20" as="geometry" />
        </mxCell>
        <mxCell id="lJEgDf2Atm-gNL0_pDHU-149" value="id" style="text;strokeColor=none;fillColor=none;spacingLeft=4;spacingRight=4;overflow=hidden;rotatable=0;points=[[0,0.5],[1,0.5]];portConstraint=eastwest;fontSize=12;whiteSpace=wrap;html=1;fontFamily=Inter;fontSource=https%3A%2F%2Ffonts.googleapis.com%2Fcss%3Ffamily%3DInter;align=right;verticalAlign=middle;fontStyle=1" parent="1" vertex="1">
          <mxGeometry x="-26" y="190" width="40" height="20" as="geometry" />
        </mxCell>
        <mxCell id="lJEgDf2Atm-gNL0_pDHU-150" value="user_code" style="text;strokeColor=none;fillColor=none;spacingLeft=4;spacingRight=4;overflow=hidden;rotatable=0;points=[[0,0.5],[1,0.5]];portConstraint=eastwest;fontSize=12;whiteSpace=wrap;html=1;fontFamily=Inter;fontSource=https%3A%2F%2Ffonts.googleapis.com%2Fcss%3Ffamily%3DInter;align=left;verticalAlign=middle;fontStyle=1" parent="1" vertex="1">
          <mxGeometry x="232" y="190" width="80" height="20" as="geometry" />
        </mxCell>
        <mxCell id="lJEgDf2Atm-gNL0_pDHU-151" value="r_score" style="text;strokeColor=none;fillColor=none;spacingLeft=4;spacingRight=4;overflow=hidden;rotatable=0;points=[[0,0.5],[1,0.5]];portConstraint=eastwest;fontSize=12;whiteSpace=wrap;html=1;fontFamily=Inter;fontSource=https%3A%2F%2Ffonts.googleapis.com%2Fcss%3Ffamily%3DInter;align=right;verticalAlign=middle;fontStyle=1" parent="1" vertex="1">
          <mxGeometry x="-20" y="238" width="80" height="20" as="geometry" />
        </mxCell>
        <mxCell id="lJEgDf2Atm-gNL0_pDHU-152" value="i_score" style="text;strokeColor=none;fillColor=none;spacingLeft=4;spacingRight=4;overflow=hidden;rotatable=0;points=[[0,0.5],[1,0.5]];portConstraint=eastwest;fontSize=12;whiteSpace=wrap;html=1;fontFamily=Inter;fontSource=https%3A%2F%2Ffonts.googleapis.com%2Fcss%3Ffamily%3DInter;align=right;verticalAlign=middle;fontStyle=1" parent="1" vertex="1">
          <mxGeometry x="-20" y="255" width="80" height="20" as="geometry" />
        </mxCell>
        <mxCell id="lJEgDf2Atm-gNL0_pDHU-153" value="a_score" style="text;strokeColor=none;fillColor=none;spacingLeft=4;spacingRight=4;overflow=hidden;rotatable=0;points=[[0,0.5],[1,0.5]];portConstraint=eastwest;fontSize=12;whiteSpace=wrap;html=1;fontFamily=Inter;fontSource=https%3A%2F%2Ffonts.googleapis.com%2Fcss%3Ffamily%3DInter;align=right;verticalAlign=middle;fontStyle=1" parent="1" vertex="1">
          <mxGeometry x="-20" y="272" width="80" height="20" as="geometry" />
        </mxCell>
        <mxCell id="lJEgDf2Atm-gNL0_pDHU-154" value="s_score" style="text;strokeColor=none;fillColor=none;spacingLeft=4;spacingRight=4;overflow=hidden;rotatable=0;points=[[0,0.5],[1,0.5]];portConstraint=eastwest;fontSize=12;whiteSpace=wrap;html=1;fontFamily=Inter;fontSource=https%3A%2F%2Ffonts.googleapis.com%2Fcss%3Ffamily%3DInter;align=right;verticalAlign=middle;fontStyle=1" parent="1" vertex="1">
          <mxGeometry x="-20" y="288" width="80" height="20" as="geometry" />
        </mxCell>
        <mxCell id="lJEgDf2Atm-gNL0_pDHU-155" value="e_score" style="text;strokeColor=none;fillColor=none;spacingLeft=4;spacingRight=4;overflow=hidden;rotatable=0;points=[[0,0.5],[1,0.5]];portConstraint=eastwest;fontSize=12;whiteSpace=wrap;html=1;fontFamily=Inter;fontSource=https%3A%2F%2Ffonts.googleapis.com%2Fcss%3Ffamily%3DInter;align=left;verticalAlign=middle;fontStyle=1" parent="1" vertex="1">
          <mxGeometry x="187" y="238" width="80" height="20" as="geometry" />
        </mxCell>
        <mxCell id="lJEgDf2Atm-gNL0_pDHU-156" value="c_score" style="text;strokeColor=none;fillColor=none;spacingLeft=4;spacingRight=4;overflow=hidden;rotatable=0;points=[[0,0.5],[1,0.5]];portConstraint=eastwest;fontSize=12;whiteSpace=wrap;html=1;fontFamily=Inter;fontSource=https%3A%2F%2Ffonts.googleapis.com%2Fcss%3Ffamily%3DInter;align=left;verticalAlign=middle;fontStyle=1" parent="1" vertex="1">
          <mxGeometry x="187" y="255" width="80" height="20" as="geometry" />
        </mxCell>
        <mxCell id="lJEgDf2Atm-gNL0_pDHU-158" value="interest_code" style="text;strokeColor=none;fillColor=none;spacingLeft=4;spacingRight=4;overflow=hidden;rotatable=0;points=[[0,0.5],[1,0.5]];portConstraint=eastwest;fontSize=12;whiteSpace=wrap;html=1;fontFamily=Inter;fontSource=https%3A%2F%2Ffonts.googleapis.com%2Fcss%3Ffamily%3DInter;align=left;verticalAlign=middle;fontStyle=1" parent="1" vertex="1">
          <mxGeometry x="187" y="272" width="97" height="20" as="geometry" />
        </mxCell>
        <mxCell id="lJEgDf2Atm-gNL0_pDHU-159" value="created_at" style="text;strokeColor=none;fillColor=none;spacingLeft=4;spacingRight=4;overflow=hidden;rotatable=0;points=[[0,0.5],[1,0.5]];portConstraint=eastwest;fontSize=12;whiteSpace=wrap;html=1;fontFamily=Inter;fontSource=https%3A%2F%2Ffonts.googleapis.com%2Fcss%3Ffamily%3DInter;align=left;verticalAlign=middle;fontStyle=1" parent="1" vertex="1">
          <mxGeometry x="187" y="288" width="97" height="20" as="geometry" />
        </mxCell>
        <mxCell id="oNDBibnbIo0C0qNJA1D2-7" style="edgeStyle=none;curved=1;rounded=0;orthogonalLoop=1;jettySize=auto;html=1;exitX=0;exitY=0.5;exitDx=0;exitDy=0;entryX=1;entryY=0.5;entryDx=0;entryDy=0;fontSize=12;startSize=8;endSize=8;endArrow=none;endFill=0;strokeWidth=3;" parent="1" source="oNDBibnbIo0C0qNJA1D2-2" target="oNDBibnbIo0C0qNJA1D2-5" edge="1">
          <mxGeometry relative="1" as="geometry" />
        </mxCell>
        <mxCell id="oNDBibnbIo0C0qNJA1D2-2" value="option" style="whiteSpace=wrap;html=1;align=center;fontSize=14;strokeWidth=2;fontFamily=Inter;fontSource=https%3A%2F%2Ffonts.googleapis.com%2Fcss%3Ffamily%3DInter;fontStyle=1;shadow=1;rounded=1;" parent="1" vertex="1">
          <mxGeometry x="1017" y="-1" width="100" height="40" as="geometry" />
        </mxCell>
        <mxCell id="oNDBibnbIo0C0qNJA1D2-5" value="" style="shape=rhombus;perimeter=rhombusPerimeter;whiteSpace=wrap;html=1;align=center;fontSize=16;strokeWidth=2;fontFamily=Inter;fontSource=https%3A%2F%2Ffonts.googleapis.com%2Fcss%3Ffamily%3DInter;fontStyle=1" parent="1" vertex="1">
          <mxGeometry x="893.5" y="4" width="30" height="30" as="geometry" />
        </mxCell>
        <mxCell id="oNDBibnbIo0C0qNJA1D2-8" value="(0, n)" style="text;strokeColor=none;fillColor=none;spacingLeft=4;spacingRight=4;overflow=hidden;rotatable=0;points=[[0,0.5],[1,0.5]];portConstraint=eastwest;fontSize=12;whiteSpace=wrap;html=1;fontFamily=Inter;fontSource=https%3A%2F%2Ffonts.googleapis.com%2Fcss%3Ffamily%3DInter;align=center;verticalAlign=middle;fontStyle=1" parent="1" vertex="1">
          <mxGeometry x="970" y="-3" width="45" height="20" as="geometry" />
        </mxCell>
        <mxCell id="oNDBibnbIo0C0qNJA1D2-9" value="(1, 1)" style="text;strokeColor=none;fillColor=none;spacingLeft=4;spacingRight=4;overflow=hidden;rotatable=0;points=[[0,0.5],[1,0.5]];portConstraint=eastwest;fontSize=12;whiteSpace=wrap;html=1;fontFamily=Inter;fontSource=https%3A%2F%2Ffonts.googleapis.com%2Fcss%3Ffamily%3DInter;align=center;verticalAlign=middle;fontStyle=1" parent="1" vertex="1">
          <mxGeometry x="803" y="-3" width="45" height="20" as="geometry" />
        </mxCell>
        <mxCell id="oNDBibnbIo0C0qNJA1D2-26" style="edgeStyle=orthogonalEdgeStyle;rounded=0;orthogonalLoop=1;jettySize=auto;html=1;exitX=1;exitY=0.5;exitDx=0;exitDy=0;entryX=0.25;entryY=0;entryDx=0;entryDy=0;fontSize=12;startSize=8;endSize=8;endArrow=none;endFill=0;strokeWidth=2;" parent="1" source="oNDBibnbIo0C0qNJA1D2-17" target="oNDBibnbIo0C0qNJA1D2-2" edge="1">
          <mxGeometry relative="1" as="geometry" />
        </mxCell>
        <mxCell id="oNDBibnbIo0C0qNJA1D2-17" value="" style="shape=rhombus;perimeter=rhombusPerimeter;whiteSpace=wrap;html=1;align=center;fontSize=16;strokeWidth=2;fontFamily=Inter;fontSource=https%3A%2F%2Ffonts.googleapis.com%2Fcss%3Ffamily%3DInter;fontStyle=1" parent="1" vertex="1">
          <mxGeometry x="735" y="-187" width="30" height="30" as="geometry" />
        </mxCell>
        <mxCell id="oNDBibnbIo0C0qNJA1D2-20" value="(0, n)" style="text;strokeColor=none;fillColor=none;spacingLeft=4;spacingRight=4;overflow=hidden;rotatable=0;points=[[0,0.5],[1,0.5]];portConstraint=eastwest;fontSize=12;whiteSpace=wrap;html=1;fontFamily=Inter;fontSource=https%3A%2F%2Ffonts.googleapis.com%2Fcss%3Ffamily%3DInter;align=center;verticalAlign=middle;fontStyle=1" parent="1" vertex="1">
          <mxGeometry x="480" y="-23" width="50" height="20" as="geometry" />
        </mxCell>
        <mxCell id="oNDBibnbIo0C0qNJA1D2-22" value="(1, 1)" style="text;strokeColor=none;fillColor=none;spacingLeft=4;spacingRight=4;overflow=hidden;rotatable=0;points=[[0,0.5],[1,0.5]];portConstraint=eastwest;fontSize=12;whiteSpace=wrap;html=1;fontFamily=Inter;fontSource=https%3A%2F%2Ffonts.googleapis.com%2Fcss%3Ffamily%3DInter;align=center;verticalAlign=middle;fontStyle=1" parent="1" vertex="1">
          <mxGeometry x="995" y="-23" width="45" height="20" as="geometry" />
        </mxCell>
        <mxCell id="oNDBibnbIo0C0qNJA1D2-27" style="edgeStyle=none;curved=1;rounded=0;orthogonalLoop=1;jettySize=auto;html=1;exitX=0.75;exitY=0;exitDx=0;exitDy=0;fontSize=12;startSize=8;endSize=8;endArrow=oval;endFill=1;strokeWidth=2;" parent="1" edge="1">
          <mxGeometry relative="1" as="geometry">
            <mxPoint x="1067.111111111111" y="-44" as="targetPoint" />
            <mxPoint x="1067" y="-1" as="sourcePoint" />
          </mxGeometry>
        </mxCell>
        <mxCell id="oNDBibnbIo0C0qNJA1D2-28" value="id" style="text;strokeColor=none;fillColor=none;spacingLeft=4;spacingRight=4;overflow=hidden;rotatable=0;points=[[0,0.5],[1,0.5]];portConstraint=eastwest;fontSize=12;whiteSpace=wrap;html=1;fontFamily=Inter;fontSource=https%3A%2F%2Ffonts.googleapis.com%2Fcss%3Ffamily%3DInter;align=center;verticalAlign=middle;fontStyle=1" parent="1" vertex="1">
          <mxGeometry x="1047" y="-72" width="40" height="20" as="geometry" />
        </mxCell>
        <mxCell id="oNDBibnbIo0C0qNJA1D2-29" style="edgeStyle=none;curved=1;rounded=0;orthogonalLoop=1;jettySize=auto;html=1;exitX=1;exitY=0.25;exitDx=0;exitDy=0;fontSize=12;startSize=8;endSize=8;endArrow=oval;endFill=0;strokeWidth=2;" parent="1" edge="1">
          <mxGeometry relative="1" as="geometry">
            <mxPoint x="1171.3076923076922" y="9.076923076923094" as="targetPoint" />
            <mxPoint x="1117" y="9" as="sourcePoint" />
          </mxGeometry>
        </mxCell>
        <mxCell id="oNDBibnbIo0C0qNJA1D2-30" value="text" style="text;strokeColor=none;fillColor=none;spacingLeft=4;spacingRight=4;overflow=hidden;rotatable=0;points=[[0,0.5],[1,0.5]];portConstraint=eastwest;fontSize=12;whiteSpace=wrap;html=1;fontFamily=Inter;fontSource=https%3A%2F%2Ffonts.googleapis.com%2Fcss%3Ffamily%3DInter;align=left;verticalAlign=middle;fontStyle=1" parent="1" vertex="1">
          <mxGeometry x="1178" y="-1" width="49" height="20" as="geometry" />
        </mxCell>
        <mxCell id="oNDBibnbIo0C0qNJA1D2-31" style="edgeStyle=none;curved=1;rounded=0;orthogonalLoop=1;jettySize=auto;html=1;exitX=1;exitY=0.25;exitDx=0;exitDy=0;fontSize=12;startSize=8;endSize=8;endArrow=oval;endFill=0;strokeWidth=2;" parent="1" edge="1">
          <mxGeometry relative="1" as="geometry">
            <mxPoint x="1171.3076923076922" y="29.076923076923094" as="targetPoint" />
            <mxPoint x="1117" y="29" as="sourcePoint" />
          </mxGeometry>
        </mxCell>
        <mxCell id="oNDBibnbIo0C0qNJA1D2-32" value="value" style="text;strokeColor=none;fillColor=none;spacingLeft=4;spacingRight=4;overflow=hidden;rotatable=0;points=[[0,0.5],[1,0.5]];portConstraint=eastwest;fontSize=12;whiteSpace=wrap;html=1;fontFamily=Inter;fontSource=https%3A%2F%2Ffonts.googleapis.com%2Fcss%3Ffamily%3DInter;align=left;verticalAlign=middle;fontStyle=1" parent="1" vertex="1">
          <mxGeometry x="1178" y="19" width="49" height="20" as="geometry" />
        </mxCell>
        <mxCell id="pUSo6NfxOrJabHu6q9km-1" style="edgeStyle=none;curved=1;rounded=0;orthogonalLoop=1;jettySize=auto;html=1;exitX=0;exitY=0.25;exitDx=0;exitDy=0;fontSize=12;startSize=8;endSize=8;endArrow=oval;endFill=0;strokeWidth=2;" edge="1" parent="1">
          <mxGeometry relative="1" as="geometry">
            <mxPoint x="-266" y="19" as="targetPoint" />
            <mxPoint x="-208" y="19" as="sourcePoint" />
          </mxGeometry>
        </mxCell>
        <mxCell id="pUSo6NfxOrJabHu6q9km-2" value="created_at" style="text;strokeColor=none;fillColor=none;spacingLeft=4;spacingRight=4;overflow=hidden;rotatable=0;points=[[0,0.5],[1,0.5]];portConstraint=eastwest;fontSize=12;whiteSpace=wrap;html=1;fontFamily=Inter;fontSource=https%3A%2F%2Ffonts.googleapis.com%2Fcss%3Ffamily%3DInter;align=right;verticalAlign=middle;fontStyle=1" vertex="1" parent="1">
          <mxGeometry x="-351" y="9" width="80" height="20" as="geometry" />
        </mxCell>
      </root>
    </mxGraphModel>
  </diagram>
</mxfile>
